<mxfile host="app.diagrams.net" agent="Mozilla/5.0 (Windows NT 10.0; Win64; x64) AppleWebKit/537.36 (KHTML, like Gecko) Chrome/129.0.0.0 Safari/537.36" version="24.7.16">
  <diagram name="Page-1" id="PFQu-oF1jD_8fCH8HA7v">
    <mxGraphModel dx="1430" dy="757" grid="1" gridSize="10" guides="1" tooltips="1" connect="1" arrows="1" fold="1" page="1" pageScale="1" pageWidth="850" pageHeight="1100" math="0" shadow="0">
      <root>
        <mxCell id="0" />
        <mxCell id="1" parent="0" />
        <mxCell id="ov4qnTlNaMqAD6Nnuisi-8" style="edgeStyle=orthogonalEdgeStyle;rounded=0;orthogonalLoop=1;jettySize=auto;html=1;" edge="1" parent="1" source="ov4qnTlNaMqAD6Nnuisi-2" target="ov4qnTlNaMqAD6Nnuisi-3">
          <mxGeometry relative="1" as="geometry" />
        </mxCell>
        <mxCell id="ov4qnTlNaMqAD6Nnuisi-2" value="Source Code" style="rounded=1;whiteSpace=wrap;html=1;fillColor=#d5e8d4;strokeColor=#82b366;" vertex="1" parent="1">
          <mxGeometry x="120" y="360" width="120" height="40" as="geometry" />
        </mxCell>
        <mxCell id="ov4qnTlNaMqAD6Nnuisi-9" style="edgeStyle=orthogonalEdgeStyle;rounded=0;orthogonalLoop=1;jettySize=auto;html=1;" edge="1" parent="1" source="ov4qnTlNaMqAD6Nnuisi-3" target="ov4qnTlNaMqAD6Nnuisi-5">
          <mxGeometry relative="1" as="geometry" />
        </mxCell>
        <mxCell id="ov4qnTlNaMqAD6Nnuisi-10" style="edgeStyle=orthogonalEdgeStyle;rounded=0;orthogonalLoop=1;jettySize=auto;html=1;" edge="1" parent="1" source="ov4qnTlNaMqAD6Nnuisi-3" target="ov4qnTlNaMqAD6Nnuisi-4">
          <mxGeometry relative="1" as="geometry">
            <Array as="points">
              <mxPoint x="310" y="340" />
              <mxPoint x="310" y="340" />
            </Array>
          </mxGeometry>
        </mxCell>
        <mxCell id="ov4qnTlNaMqAD6Nnuisi-12" style="edgeStyle=orthogonalEdgeStyle;rounded=0;orthogonalLoop=1;jettySize=auto;html=1;entryX=0.25;entryY=0;entryDx=0;entryDy=0;dashed=1;" edge="1" parent="1" source="ov4qnTlNaMqAD6Nnuisi-3" target="ov4qnTlNaMqAD6Nnuisi-6">
          <mxGeometry relative="1" as="geometry" />
        </mxCell>
        <mxCell id="ov4qnTlNaMqAD6Nnuisi-3" value="AST Scanner and Parser" style="rounded=1;whiteSpace=wrap;html=1;fillColor=#ffe6cc;strokeColor=#d79b00;" vertex="1" parent="1">
          <mxGeometry x="280" y="360" width="120" height="40" as="geometry" />
        </mxCell>
        <mxCell id="ov4qnTlNaMqAD6Nnuisi-11" style="edgeStyle=orthogonalEdgeStyle;rounded=0;orthogonalLoop=1;jettySize=auto;html=1;exitX=0.75;exitY=1;exitDx=0;exitDy=0;entryX=0.75;entryY=0;entryDx=0;entryDy=0;" edge="1" parent="1" source="ov4qnTlNaMqAD6Nnuisi-4" target="ov4qnTlNaMqAD6Nnuisi-3">
          <mxGeometry relative="1" as="geometry" />
        </mxCell>
        <mxCell id="ov4qnTlNaMqAD6Nnuisi-4" value="LLM Code Partitioning" style="rounded=1;whiteSpace=wrap;html=1;fillColor=#ffe6cc;strokeColor=#d79b00;" vertex="1" parent="1">
          <mxGeometry x="280" y="280" width="120" height="40" as="geometry" />
        </mxCell>
        <mxCell id="ov4qnTlNaMqAD6Nnuisi-5" value="Code Visualizer" style="rounded=1;whiteSpace=wrap;html=1;fillColor=#dae8fc;strokeColor=#6c8ebf;" vertex="1" parent="1">
          <mxGeometry x="440" y="360" width="120" height="40" as="geometry" />
        </mxCell>
        <mxCell id="ov4qnTlNaMqAD6Nnuisi-15" style="edgeStyle=orthogonalEdgeStyle;rounded=0;orthogonalLoop=1;jettySize=auto;html=1;exitX=0.75;exitY=0;exitDx=0;exitDy=0;dashed=1;strokeColor=default;align=center;verticalAlign=middle;fontFamily=Helvetica;fontSize=11;fontColor=default;labelBackgroundColor=default;endArrow=classic;" edge="1" parent="1" source="ov4qnTlNaMqAD6Nnuisi-6" target="ov4qnTlNaMqAD6Nnuisi-5">
          <mxGeometry relative="1" as="geometry" />
        </mxCell>
        <mxCell id="ov4qnTlNaMqAD6Nnuisi-6" value="Telemetry Database" style="rounded=1;whiteSpace=wrap;html=1;fillColor=#ffe6cc;strokeColor=#d79b00;" vertex="1" parent="1">
          <mxGeometry x="360" y="440" width="120" height="40" as="geometry" />
        </mxCell>
        <mxCell id="ov4qnTlNaMqAD6Nnuisi-14" style="edgeStyle=orthogonalEdgeStyle;rounded=0;orthogonalLoop=1;jettySize=auto;html=1;exitX=1;exitY=0.5;exitDx=0;exitDy=0;entryX=0;entryY=0.5;entryDx=0;entryDy=0;dashed=1;strokeColor=default;align=center;verticalAlign=middle;fontFamily=Helvetica;fontSize=11;fontColor=default;labelBackgroundColor=default;endArrow=classic;" edge="1" parent="1" source="ov4qnTlNaMqAD6Nnuisi-7" target="ov4qnTlNaMqAD6Nnuisi-6">
          <mxGeometry relative="1" as="geometry" />
        </mxCell>
        <mxCell id="ov4qnTlNaMqAD6Nnuisi-7" value="Production Instance" style="rounded=1;whiteSpace=wrap;html=1;fillColor=#d5e8d4;strokeColor=#82b366;" vertex="1" parent="1">
          <mxGeometry x="200" y="440" width="120" height="40" as="geometry" />
        </mxCell>
      </root>
    </mxGraphModel>
  </diagram>
</mxfile>
